<svg id="svg" xmlns="http://www.w3.org/2000/svg" xmlns:xlink="http://www.w3.org/1999/xlink" width="400" height="409.5238095238095" viewBox="0, 0, 400,409.5238095238095"><g id="svgg"><path id="path0" d="M87.614 59.174 C 86.912 60.486,87.047 354.575,87.751 355.159 C 88.161 355.499,107.546 355.589,163.472 355.508 L 238.642 355.400 241.221 354.147 C 245.204 352.212,248.608 351.440,255.200 350.976 C 259.395 350.681,260.025 350.454,261.835 348.591 C 262.834 347.562,263.611 347.219,265.837 346.823 C 269.992 346.084,270.841 345.743,272.762 344.036 C 273.852 343.067,275.377 342.216,276.762 341.802 C 277.993 341.435,279.232 341.062,279.515 340.974 C 279.798 340.886,280.338 340.262,280.715 339.587 C 281.154 338.800,282.360 337.851,284.072 336.945 C 285.542 336.167,287.485 334.782,288.390 333.868 C 289.297 332.952,290.698 332.020,291.512 331.792 C 292.323 331.564,293.172 331.023,293.399 330.589 C 294.424 328.622,295.331 327.662,296.788 327.005 C 297.886 326.510,298.429 325.977,298.592 325.235 C 298.896 323.852,300.388 322.137,301.733 321.625 C 302.491 321.337,302.800 320.934,302.800 320.234 C 302.800 319.691,302.969 319.143,303.176 319.015 C 303.384 318.887,303.962 317.964,304.461 316.964 C 304.960 315.964,305.871 314.849,306.485 314.486 C 307.099 314.124,307.703 313.506,307.827 313.113 C 307.952 312.721,308.222 312.400,308.427 312.400 C 308.632 312.400,308.800 311.976,308.800 311.458 C 308.800 310.530,309.656 309.425,311.681 307.740 C 312.451 307.099,312.788 306.335,313.005 304.740 C 313.411 301.756,314.314 299.875,315.842 298.827 C 317.220 297.883,318.000 295.610,318.000 292.538 C 318.000 289.928,319.284 285.595,320.416 284.383 C 322.783 281.849,322.958 280.116,322.927 259.600 C 322.897 239.194,322.881 239.050,320.463 236.826 C 319.184 235.650,318.000 231.435,318.000 228.059 C 318.000 226.038,316.964 223.240,316.200 223.197 C 315.343 223.149,313.200 218.917,313.200 217.272 C 313.200 216.122,312.258 214.418,311.485 214.168 C 310.510 213.853,309.093 211.471,308.242 208.717 C 307.771 207.194,307.276 206.351,306.756 206.186 C 305.702 205.851,304.000 203.967,304.000 203.135 C 304.000 202.316,301.761 200.000,300.969 200.000 C 300.656 200.000,300.400 199.745,300.400 199.433 C 300.400 199.122,300.265 198.807,300.100 198.733 C 297.094 197.397,298.973 184.800,302.179 184.800 C 302.906 184.800,303.557 183.360,303.959 180.860 C 304.409 178.066,305.199 176.376,306.537 175.342 C 307.511 174.588,308.800 170.490,308.800 168.144 C 308.800 166.290,310.072 162.282,311.205 160.566 C 312.955 157.915,313.308 154.279,313.082 141.200 C 312.856 128.131,312.726 127.041,311.196 125.400 C 309.855 123.962,308.800 121.005,308.800 118.686 C 308.800 116.264,307.501 110.800,306.924 110.800 C 306.658 110.800,305.978 110.193,305.412 109.451 C 304.505 108.262,304.022 106.887,303.042 102.700 C 302.901 102.095,302.534 101.600,302.228 101.600 C 301.552 101.600,299.600 99.358,299.600 98.582 C 299.600 97.568,297.879 94.623,296.428 93.152 C 294.831 91.533,293.600 89.584,293.600 88.674 C 293.600 88.343,292.831 87.699,291.891 87.244 C 290.211 86.431,288.800 84.694,288.800 83.438 C 288.800 83.087,288.481 82.800,288.091 82.800 C 287.057 82.800,284.475 80.534,284.327 79.496 C 284.231 78.822,283.669 78.416,282.007 77.820 C 279.700 76.992,279.275 76.709,276.733 74.309 C 275.864 73.489,274.482 72.637,273.660 72.416 C 271.997 71.968,270.592 70.836,270.212 69.638 C 270.026 69.051,269.378 68.741,267.681 68.427 C 263.217 67.602,260.002 66.125,259.999 64.900 C 259.998 64.361,255.286 63.200,253.101 63.200 C 251.928 63.200,249.985 62.949,248.784 62.642 C 247.583 62.336,245.300 61.870,243.710 61.608 C 242.091 61.341,240.388 60.791,239.836 60.357 C 237.225 58.303,241.078 58.400,161.764 58.400 C 89.273 58.400,88.021 58.413,87.614 59.174 M238.142 120.503 C 239.054 121.550,240.111 122.405,240.492 122.403 C 243.559 122.389,249.600 127.772,249.600 130.519 C 249.600 131.140,250.141 131.901,251.171 132.728 C 255.121 135.903,254.548 153.600,250.495 153.600 C 250.231 153.600,249.905 154.095,249.770 154.700 C 249.636 155.305,249.431 156.145,249.314 156.567 C 248.883 158.137,243.849 162.655,242.243 162.916 C 240.029 163.275,238.506 164.055,237.934 165.123 C 236.653 167.517,238.936 167.400,193.600 167.400 C 146.705 167.400,150.062 167.636,148.118 164.200 L 147.213 162.600 147.207 143.133 C 147.199 119.916,147.202 119.897,151.800 118.768 C 152.460 118.605,171.784 118.501,194.742 118.536 L 236.485 118.600 238.142 120.503 M243.237 228.302 C 244.027 228.798,244.878 229.653,245.128 230.202 C 245.378 230.751,245.902 231.200,246.291 231.200 C 248.495 231.201,253.200 233.936,253.200 235.216 C 253.200 235.776,254.511 237.200,255.027 237.200 C 256.370 237.200,258.094 239.625,259.057 242.866 C 259.436 244.142,260.126 245.286,260.957 246.016 C 263.000 247.810,263.201 249.138,263.194 260.846 C 263.187 272.888,262.506 276.400,260.179 276.400 C 259.638 276.400,259.027 277.556,258.170 280.200 C 257.307 282.866,254.099 286.155,251.519 287.021 C 250.372 287.405,249.541 287.954,249.392 288.426 C 249.257 288.852,248.978 289.200,248.773 289.200 C 248.568 289.200,248.396 289.425,248.390 289.700 C 248.379 290.267,245.920 291.600,244.884 291.600 C 243.620 291.601,240.550 292.991,239.571 294.006 C 237.606 296.044,238.583 296.000,194.572 295.994 C 152.033 295.988,151.486 295.968,149.398 294.400 C 147.153 292.713,147.200 293.439,147.200 260.256 L 147.200 229.739 148.191 228.808 C 149.806 227.291,150.352 227.275,197.000 227.339 L 241.800 227.400 243.237 228.302 " stroke="none" fill="#3c3c3b" fill-rule="evenodd"></path><path id="path1" d="M86.547 57.109 C 86.078 57.489,85.493 58.193,85.247 58.674 C 84.920 59.313,84.800 99.278,84.800 207.345 L 84.800 355.143 86.163 356.588 L 87.526 358.034 165.863 357.892 C 251.510 357.736,245.374 357.895,250.400 355.708 C 251.592 355.189,254.688 354.348,258.800 353.426 C 263.620 352.346,264.904 351.918,266.600 350.825 C 267.480 350.258,269.460 349.355,271.000 348.819 C 272.540 348.283,274.160 347.650,274.600 347.411 C 276.290 346.495,277.200 345.792,277.201 345.404 C 277.203 345.035,280.171 343.600,280.931 343.600 C 281.346 343.600,283.861 341.738,285.376 340.309 C 286.023 339.699,286.788 339.200,287.076 339.200 C 287.364 339.200,287.600 339.040,287.600 338.843 C 287.600 338.647,288.055 338.373,288.610 338.233 C 289.527 338.003,291.200 336.690,291.200 336.200 C 291.200 335.784,292.707 334.571,294.155 333.821 C 295.045 333.360,296.070 332.340,296.667 331.321 C 297.222 330.375,297.974 329.594,298.338 329.587 C 299.171 329.571,300.400 328.659,300.400 328.056 C 300.400 327.805,300.577 327.600,300.792 327.600 C 301.008 327.600,301.294 327.163,301.428 326.629 C 301.562 326.095,302.345 325.213,303.169 324.668 C 304.106 324.048,305.080 322.858,305.775 321.484 C 306.386 320.277,307.304 319.065,307.815 318.792 C 308.327 318.518,309.162 317.508,309.672 316.547 C 310.182 315.586,310.714 314.800,310.856 314.800 C 310.997 314.800,311.223 314.364,311.357 313.831 C 311.490 313.298,312.118 312.344,312.751 311.710 C 314.023 310.438,315.600 307.597,315.600 306.578 C 315.600 305.760,316.715 303.741,317.899 302.417 C 318.758 301.455,319.447 299.615,321.016 294.100 C 321.407 292.725,321.845 291.600,321.990 291.600 C 323.006 291.600,324.690 284.356,325.618 276.000 C 325.874 273.690,326.335 271.401,326.642 270.914 C 327.399 269.713,327.453 253.594,326.705 252.274 C 326.432 251.793,326.091 249.870,325.947 248.000 C 325.286 239.430,323.264 230.000,322.089 230.000 C 321.721 230.000,320.402 226.379,320.394 225.346 C 320.381 223.708,318.829 219.747,317.650 218.343 C 316.962 217.524,316.400 216.727,316.400 216.572 C 316.400 215.821,313.047 209.516,312.545 209.324 C 312.229 209.202,311.448 207.985,310.809 206.619 C 310.046 204.988,309.166 203.806,308.244 203.174 C 307.471 202.645,306.729 201.770,306.593 201.230 C 306.328 200.173,304.476 197.619,302.801 196.000 C 300.494 193.771,300.765 190.959,303.562 188.099 C 304.368 187.275,305.353 185.790,305.751 184.800 C 306.883 181.982,307.700 180.400,308.023 180.400 C 308.453 180.400,310.000 177.671,310.000 176.912 C 310.000 175.669,311.295 171.768,312.659 168.899 C 317.478 158.769,317.299 126.023,312.375 116.750 C 311.663 115.410,310.409 111.640,309.848 109.153 C 309.718 108.578,308.969 107.172,308.183 106.030 C 307.398 104.888,306.372 102.930,305.904 101.677 C 305.436 100.425,304.377 98.651,303.551 97.735 C 302.725 96.820,301.508 94.914,300.847 93.500 C 300.138 91.985,299.101 90.515,298.322 89.920 C 297.595 89.365,296.633 88.216,296.185 87.365 C 295.737 86.515,294.675 85.346,293.825 84.769 C 292.974 84.191,291.931 83.042,291.507 82.216 C 290.993 81.213,290.233 80.499,289.224 80.067 C 288.278 79.663,287.427 78.898,286.955 78.026 C 286.462 77.116,285.505 76.278,284.200 75.615 C 283.100 75.057,281.960 74.278,281.666 73.884 C 280.638 72.505,279.403 71.565,277.334 70.586 C 276.186 70.043,274.454 68.913,273.485 68.074 C 272.437 67.166,270.765 66.250,269.361 65.812 C 268.063 65.407,266.010 64.409,264.800 63.594 C 262.722 62.195,261.605 61.831,254.881 60.367 C 253.936 60.161,251.866 59.389,250.281 58.651 C 245.422 56.388,245.480 56.389,162.400 56.404 C 91.947 56.417,87.348 56.460,86.547 57.109 M238.964 57.804 C 240.044 58.132,241.964 58.400,243.231 58.400 C 244.912 58.400,246.092 58.680,247.600 59.437 C 249.689 60.487,255.246 62.000,257.011 62.000 C 258.259 62.000,261.895 63.438,262.712 64.255 C 263.493 65.035,266.290 66.260,268.648 66.854 C 269.612 67.096,270.400 67.454,270.400 67.647 C 270.400 67.841,270.604 68.000,270.854 68.000 C 271.104 68.000,271.700 68.405,272.179 68.900 C 273.065 69.817,273.247 69.934,276.400 71.622 C 277.390 72.152,278.926 73.232,279.814 74.022 C 280.702 74.812,282.284 75.886,283.330 76.408 C 284.376 76.930,285.586 77.930,286.018 78.628 C 286.449 79.327,287.435 80.326,288.208 80.849 C 288.981 81.372,290.075 82.461,290.639 83.268 C 291.203 84.075,292.326 85.194,293.134 85.754 C 293.942 86.314,294.963 87.447,295.402 88.271 C 295.841 89.095,296.850 90.360,297.644 91.081 C 298.438 91.802,299.412 93.249,299.808 94.296 C 300.204 95.343,301.271 97.190,302.180 98.400 C 304.433 101.400,305.200 102.663,305.200 103.372 C 305.200 104.198,306.453 106.837,307.280 107.754 C 308.549 109.161,310.082 113.428,311.211 118.695 C 311.410 119.627,311.843 120.909,312.171 121.544 C 315.527 128.034,315.764 154.298,312.557 164.295 C 312.257 165.228,311.848 166.308,311.646 166.695 C 311.445 167.083,310.992 168.435,310.640 169.700 C 308.847 176.146,308.081 178.049,306.819 179.200 C 306.404 179.579,305.306 182.206,305.022 183.502 C 304.865 184.216,304.571 184.800,304.368 184.800 C 304.166 184.800,304.000 184.974,304.000 185.187 C 304.000 185.399,303.410 186.164,302.689 186.887 C 301.455 188.122,301.108 188.791,300.115 191.847 C 299.633 193.330,301.017 196.687,302.812 198.389 C 303.398 198.945,304.556 200.440,305.385 201.710 C 306.214 202.981,307.211 204.192,307.600 204.400 C 308.325 204.788,310.000 207.329,310.000 208.040 C 310.000 208.257,310.694 209.372,311.542 210.517 C 312.389 211.663,313.198 212.870,313.339 213.200 C 313.480 213.530,313.755 214.070,313.950 214.400 C 314.145 214.730,314.712 215.900,315.209 217.000 C 315.706 218.100,316.515 219.544,317.008 220.210 C 317.937 221.466,318.695 223.564,319.824 228.000 C 320.187 229.430,320.944 231.590,321.505 232.800 C 322.067 234.010,322.670 235.540,322.845 236.200 C 324.691 243.155,324.995 246.487,324.998 259.800 C 325.001 275.721,324.159 282.797,321.644 288.004 C 320.838 289.671,319.850 292.961,319.181 296.200 C 318.772 298.182,317.887 299.973,316.666 301.291 C 316.153 301.844,315.324 303.571,314.823 305.127 C 314.320 306.693,313.342 308.637,312.634 309.479 C 311.471 310.862,308.800 314.973,308.800 315.380 C 308.800 315.473,308.064 316.357,307.165 317.345 C 306.266 318.332,305.169 319.829,304.726 320.670 C 304.283 321.512,303.162 322.920,302.234 323.800 C 301.307 324.680,300.326 325.855,300.054 326.411 C 299.782 326.967,298.763 327.957,297.789 328.611 C 296.815 329.265,296.014 329.953,296.009 330.140 C 295.996 330.637,293.354 333.200,292.855 333.200 C 292.621 333.200,291.329 334.182,289.984 335.383 C 288.638 336.584,287.160 337.686,286.699 337.832 C 286.238 337.978,285.668 338.256,285.431 338.449 C 281.158 341.929,278.536 343.600,277.350 343.600 C 277.131 343.600,276.423 344.095,275.776 344.700 C 275.129 345.305,273.970 346.089,273.200 346.442 C 269.901 347.955,268.730 348.400,268.049 348.400 C 267.651 348.400,266.533 348.837,265.563 349.372 C 264.593 349.907,263.170 350.684,262.400 351.100 C 261.630 351.516,259.650 352.083,258.000 352.362 C 251.261 353.498,248.663 354.072,247.851 354.604 C 244.739 356.643,247.896 356.563,164.725 356.696 L 87.649 356.820 86.825 355.934 L 86.000 355.049 86.000 207.179 L 86.000 59.308 86.829 58.254 L 87.658 57.200 162.329 57.204 C 227.308 57.208,237.255 57.286,238.964 57.804 M153.843 120.972 C 149.290 122.998,149.127 123.814,149.275 143.800 C 149.415 162.686,149.252 161.674,152.544 164.059 L 154.120 165.200 192.960 165.187 C 234.272 165.173,234.158 165.178,236.475 163.318 C 236.764 163.086,238.116 162.494,239.480 162.002 C 240.844 161.510,242.554 160.575,243.280 159.924 C 244.006 159.273,245.106 158.348,245.725 157.870 C 246.814 157.027,248.400 154.490,248.400 153.589 C 248.400 153.346,248.832 152.574,249.361 151.873 C 252.626 147.545,252.912 139.925,249.990 135.081 C 249.140 133.671,248.319 132.016,248.165 131.401 C 247.622 129.239,241.054 123.600,239.077 123.600 C 238.764 123.600,237.908 123.075,237.173 122.434 C 236.436 121.791,235.113 121.140,234.219 120.981 C 231.021 120.414,155.116 120.405,153.843 120.972 M234.490 123.239 C 235.749 123.558,237.000 124.040,237.270 124.310 C 237.539 124.579,238.183 124.800,238.700 124.800 C 240.037 124.800,241.767 125.785,242.562 126.999 C 242.937 127.570,243.796 128.374,244.471 128.785 C 245.829 129.611,247.193 131.444,247.197 132.449 C 247.200 133.181,248.457 135.993,249.590 137.800 C 251.084 140.185,250.716 145.586,248.800 149.400 C 247.920 151.152,247.200 152.952,247.200 153.401 C 247.200 154.270,245.005 157.200,244.355 157.200 C 244.142 157.200,243.300 157.913,242.484 158.784 C 241.225 160.128,240.364 160.565,236.800 161.673 L 232.600 162.978 193.657 163.098 L 154.714 163.219 152.957 161.462 L 151.200 159.705 151.200 142.871 L 151.200 126.037 153.051 124.213 L 154.901 122.388 193.551 122.524 C 225.656 122.637,232.588 122.758,234.490 123.239 M153.600 228.778 C 151.621 229.219,149.868 229.969,149.514 230.525 C 149.054 231.249,149.129 287.157,149.592 288.773 C 150.070 290.440,151.697 292.214,153.684 293.237 C 155.114 293.972,156.551 294.000,193.084 293.992 C 231.337 293.984,235.286 293.851,237.175 292.514 C 237.739 292.114,239.280 291.453,240.600 291.045 C 243.976 290.000,245.567 289.202,247.344 287.661 C 248.193 286.925,249.477 286.076,250.197 285.776 C 250.916 285.475,252.021 284.658,252.652 283.959 C 253.284 283.261,254.313 282.129,254.939 281.445 C 255.565 280.760,256.607 279.068,257.254 277.685 C 257.900 276.302,258.738 274.851,259.115 274.460 C 263.144 270.278,263.261 247.668,259.254 247.595 C 259.002 247.591,258.364 246.257,256.961 242.800 C 256.124 240.737,255.156 239.231,254.656 239.213 C 254.467 239.206,253.283 238.131,252.024 236.825 C 249.955 234.678,246.158 232.400,244.646 232.400 C 244.396 232.400,243.693 231.937,243.083 231.372 C 242.473 230.806,241.125 229.951,240.087 229.472 L 238.200 228.600 196.600 228.533 C 173.720 228.496,154.370 228.606,153.600 228.778 M239.200 230.556 C 239.970 230.971,241.033 231.740,241.563 232.264 C 242.092 232.788,242.992 233.319,243.563 233.445 C 248.900 234.621,255.086 240.573,256.996 246.371 C 257.389 247.564,258.174 248.970,258.739 249.494 C 260.436 251.066,261.187 254.297,261.194 260.045 C 261.203 267.581,260.891 268.838,257.900 273.316 C 257.075 274.551,256.400 275.847,256.400 276.197 C 256.400 277.092,254.864 280.000,254.391 280.000 C 254.175 280.000,253.355 280.896,252.568 281.992 C 251.475 283.513,250.573 284.237,248.748 285.055 C 247.435 285.645,246.184 286.457,245.968 286.859 C 245.352 288.010,239.723 290.400,237.628 290.400 C 237.261 290.400,236.735 290.625,236.460 290.900 C 236.068 291.292,227.168 291.424,195.256 291.509 L 154.552 291.618 153.064 290.130 C 151.044 288.111,151.167 290.279,151.290 258.800 L 151.400 230.600 152.800 230.117 C 155.481 229.192,237.444 229.608,239.200 230.556 " stroke="none" fill="#b48c1c" fill-rule="evenodd"></path><path id="path2" d="M86.829 58.254 L 86.000 59.308 86.000 207.179 L 86.000 355.049 86.825 355.934 L 87.649 356.820 164.725 356.696 C 247.896 356.563,244.739 356.643,247.851 354.604 C 248.663 354.072,251.261 353.498,258.000 352.362 C 259.650 352.083,261.630 351.516,262.400 351.100 C 263.170 350.684,264.593 349.907,265.563 349.372 C 266.533 348.837,267.651 348.400,268.049 348.400 C 268.730 348.400,269.901 347.955,273.200 346.442 C 273.970 346.089,275.129 345.305,275.776 344.700 C 276.423 344.095,277.131 343.600,277.350 343.600 C 278.536 343.600,281.158 341.929,285.431 338.449 C 285.668 338.256,286.238 337.978,286.699 337.832 C 287.160 337.686,288.638 336.584,289.984 335.383 C 291.329 334.182,292.621 333.200,292.855 333.200 C 293.354 333.200,295.996 330.637,296.009 330.140 C 296.014 329.953,296.815 329.265,297.789 328.611 C 298.763 327.957,299.782 326.967,300.054 326.411 C 300.326 325.855,301.307 324.680,302.234 323.800 C 303.162 322.920,304.283 321.512,304.726 320.670 C 305.169 319.829,306.266 318.332,307.165 317.345 C 308.064 316.357,308.800 315.473,308.800 315.380 C 308.800 314.973,311.471 310.862,312.634 309.479 C 313.342 308.637,314.320 306.693,314.823 305.127 C 315.324 303.571,316.153 301.844,316.666 301.291 C 317.887 299.973,318.772 298.182,319.181 296.200 C 319.850 292.961,320.838 289.671,321.644 288.004 C 325.296 280.446,326.472 250.480,323.568 239.000 C 322.684 235.505,322.490 234.921,321.505 232.800 C 320.944 231.590,320.187 229.430,319.824 228.000 C 318.695 223.564,317.937 221.466,317.008 220.210 C 316.515 219.544,315.706 218.100,315.209 217.000 C 314.712 215.900,314.145 214.730,313.950 214.400 C 313.755 214.070,313.480 213.530,313.339 213.200 C 313.198 212.870,312.389 211.663,311.542 210.517 C 310.694 209.372,310.000 208.257,310.000 208.040 C 310.000 207.329,308.325 204.788,307.600 204.400 C 307.211 204.192,306.214 202.981,305.385 201.710 C 304.556 200.440,303.398 198.945,302.812 198.389 C 301.017 196.687,299.633 193.330,300.115 191.847 C 301.108 188.791,301.455 188.122,302.689 186.887 C 303.410 186.164,304.000 185.399,304.000 185.187 C 304.000 184.974,304.166 184.800,304.368 184.800 C 304.571 184.800,304.865 184.216,305.022 183.502 C 305.306 182.206,306.404 179.579,306.819 179.200 C 308.081 178.049,308.847 176.146,310.640 169.700 C 310.992 168.435,311.445 167.083,311.646 166.695 C 315.616 159.062,315.967 128.884,312.171 121.544 C 311.843 120.909,311.410 119.627,311.211 118.695 C 310.082 113.428,308.549 109.161,307.280 107.754 C 306.453 106.837,305.200 104.198,305.200 103.372 C 305.200 102.663,304.433 101.400,302.180 98.400 C 301.271 97.190,300.204 95.343,299.808 94.296 C 299.412 93.249,298.438 91.802,297.644 91.081 C 296.850 90.360,295.841 89.095,295.402 88.271 C 294.963 87.447,293.942 86.314,293.134 85.754 C 292.326 85.194,291.203 84.075,290.639 83.268 C 290.075 82.461,288.981 81.372,288.208 80.849 C 287.435 80.326,286.449 79.327,286.018 78.628 C 285.586 77.930,284.376 76.930,283.330 76.408 C 282.284 75.886,280.702 74.812,279.814 74.022 C 278.926 73.232,277.390 72.152,276.400 71.622 C 273.247 69.934,273.065 69.817,272.179 68.900 C 271.700 68.405,271.104 68.000,270.854 68.000 C 270.604 68.000,270.400 67.841,270.400 67.647 C 270.400 67.454,269.612 67.096,268.648 66.854 C 266.290 66.260,263.493 65.035,262.712 64.255 C 261.895 63.438,258.259 62.000,257.011 62.000 C 255.246 62.000,249.689 60.487,247.600 59.437 C 246.092 58.680,244.912 58.400,243.231 58.400 C 241.964 58.400,240.044 58.132,238.964 57.804 C 237.255 57.286,227.308 57.208,162.329 57.204 L 87.658 57.200 86.829 58.254 M237.176 58.991 C 238.098 59.317,239.295 59.931,239.836 60.357 C 240.388 60.791,242.091 61.341,243.710 61.608 C 245.300 61.870,247.583 62.336,248.784 62.642 C 249.985 62.949,251.928 63.200,253.101 63.200 C 255.286 63.200,259.998 64.361,259.999 64.900 C 260.002 66.125,263.217 67.602,267.681 68.427 C 269.378 68.741,270.026 69.051,270.212 69.638 C 270.592 70.836,271.997 71.968,273.660 72.416 C 274.482 72.637,275.864 73.489,276.733 74.309 C 279.275 76.709,279.700 76.992,282.007 77.820 C 283.669 78.416,284.231 78.822,284.327 79.496 C 284.475 80.534,287.057 82.800,288.091 82.800 C 288.481 82.800,288.800 83.087,288.800 83.438 C 288.800 84.694,290.211 86.431,291.891 87.244 C 292.831 87.699,293.600 88.343,293.600 88.674 C 293.600 89.584,294.831 91.533,296.428 93.152 C 297.879 94.623,299.600 97.568,299.600 98.582 C 299.600 99.358,301.552 101.600,302.228 101.600 C 302.534 101.600,302.901 102.095,303.042 102.700 C 304.022 106.887,304.505 108.262,305.412 109.451 C 305.978 110.193,306.658 110.800,306.924 110.800 C 307.501 110.800,308.800 116.264,308.800 118.686 C 308.800 121.005,309.855 123.962,311.196 125.400 C 314.028 128.437,314.035 156.280,311.205 160.566 C 310.072 162.282,308.800 166.290,308.800 168.144 C 308.800 170.490,307.511 174.588,306.537 175.342 C 305.199 176.376,304.409 178.066,303.959 180.860 C 303.557 183.360,302.906 184.800,302.179 184.800 C 298.973 184.800,297.094 197.397,300.100 198.733 C 300.265 198.807,300.400 199.122,300.400 199.433 C 300.400 199.745,300.656 200.000,300.969 200.000 C 301.761 200.000,304.000 202.316,304.000 203.135 C 304.000 203.967,305.702 205.851,306.756 206.186 C 307.276 206.351,307.771 207.194,308.242 208.717 C 309.093 211.471,310.510 213.853,311.485 214.168 C 312.258 214.418,313.200 216.122,313.200 217.272 C 313.200 218.917,315.343 223.149,316.200 223.197 C 316.964 223.240,318.000 226.038,318.000 228.059 C 318.000 231.435,319.184 235.650,320.463 236.826 C 322.881 239.050,322.897 239.194,322.927 259.600 C 322.958 280.116,322.783 281.849,320.416 284.383 C 319.284 285.595,318.000 289.928,318.000 292.538 C 318.000 295.610,317.220 297.883,315.842 298.827 C 314.314 299.875,313.411 301.756,313.005 304.740 C 312.788 306.335,312.451 307.099,311.681 307.740 C 309.656 309.425,308.800 310.530,308.800 311.458 C 308.800 311.976,308.632 312.400,308.427 312.400 C 308.222 312.400,307.952 312.721,307.827 313.113 C 307.703 313.506,307.099 314.124,306.485 314.486 C 305.871 314.849,304.960 315.964,304.461 316.964 C 303.962 317.964,303.384 318.887,303.176 319.015 C 302.969 319.143,302.800 319.691,302.800 320.234 C 302.800 320.934,302.491 321.337,301.733 321.625 C 300.388 322.137,298.896 323.852,298.592 325.235 C 298.429 325.977,297.886 326.510,296.788 327.005 C 295.331 327.662,294.424 328.622,293.399 330.589 C 293.172 331.023,292.323 331.564,291.512 331.792 C 290.698 332.020,289.297 332.952,288.390 333.868 C 287.485 334.782,285.542 336.167,284.072 336.945 C 282.360 337.851,281.154 338.800,280.715 339.587 C 280.338 340.262,279.798 340.886,279.515 340.974 C 279.232 341.062,277.993 341.435,276.762 341.802 C 275.377 342.216,273.852 343.067,272.762 344.036 C 270.841 345.743,269.992 346.084,265.837 346.823 C 263.611 347.219,262.834 347.562,261.835 348.591 C 260.025 350.454,259.395 350.681,255.200 350.976 C 248.608 351.440,245.204 352.212,241.221 354.147 L 238.642 355.400 163.472 355.508 C 107.546 355.589,88.161 355.499,87.751 355.159 C 87.047 354.575,86.912 60.486,87.614 59.174 C 88.180 58.116,234.191 57.938,237.176 58.991 M151.800 118.768 C 147.202 119.897,147.199 119.916,147.207 143.133 L 147.213 162.600 148.118 164.200 C 150.062 167.636,146.705 167.400,193.600 167.400 C 238.936 167.400,236.653 167.517,237.934 165.123 C 238.506 164.055,240.029 163.275,242.243 162.916 C 243.849 162.655,248.883 158.137,249.314 156.567 C 249.431 156.145,249.636 155.305,249.770 154.700 C 249.905 154.095,250.231 153.600,250.495 153.600 C 254.548 153.600,255.121 135.903,251.171 132.728 C 250.141 131.901,249.600 131.140,249.600 130.519 C 249.600 127.772,243.559 122.389,240.492 122.403 C 240.111 122.405,239.054 121.550,238.142 120.503 L 236.485 118.600 194.742 118.536 C 171.784 118.501,152.460 118.605,151.800 118.768 M234.219 120.981 C 235.113 121.140,236.436 121.791,237.173 122.434 C 237.908 123.075,238.764 123.600,239.077 123.600 C 241.054 123.600,247.622 129.239,248.165 131.401 C 248.319 132.016,249.140 133.671,249.990 135.081 C 252.912 139.925,252.626 147.545,249.361 151.873 C 248.832 152.574,248.400 153.346,248.400 153.589 C 248.400 154.490,246.814 157.027,245.725 157.870 C 245.106 158.348,244.006 159.273,243.280 159.924 C 242.554 160.575,240.844 161.510,239.480 162.002 C 238.116 162.494,236.764 163.086,236.475 163.318 C 234.158 165.178,234.272 165.173,192.960 165.187 L 154.120 165.200 152.544 164.059 C 149.252 161.674,149.415 162.686,149.275 143.800 C 149.127 123.814,149.290 122.998,153.843 120.972 C 155.116 120.405,231.021 120.414,234.219 120.981 M150.691 227.577 C 149.862 227.742,148.737 228.296,148.191 228.808 L 147.200 229.739 147.200 260.256 C 147.200 293.439,147.153 292.713,149.398 294.400 C 151.486 295.968,152.033 295.988,194.572 295.994 C 238.583 296.000,237.606 296.044,239.571 294.006 C 240.550 292.991,243.620 291.601,244.884 291.600 C 245.920 291.600,248.379 290.267,248.390 289.700 C 248.396 289.425,248.568 289.200,248.773 289.200 C 248.978 289.200,249.257 288.852,249.392 288.426 C 249.541 287.954,250.372 287.405,251.519 287.021 C 254.099 286.155,257.307 282.866,258.170 280.200 C 259.027 277.556,259.638 276.400,260.179 276.400 C 262.506 276.400,263.187 272.888,263.194 260.846 C 263.201 249.138,263.000 247.810,260.957 246.016 C 260.126 245.286,259.436 244.142,259.057 242.866 C 258.094 239.625,256.370 237.200,255.027 237.200 C 254.511 237.200,253.200 235.776,253.200 235.216 C 253.200 233.936,248.495 231.201,246.291 231.200 C 245.902 231.200,245.378 230.751,245.128 230.202 C 244.878 229.653,244.027 228.798,243.237 228.302 L 241.800 227.400 197.000 227.339 C 172.360 227.305,151.521 227.412,150.691 227.577 M240.087 229.472 C 241.125 229.951,242.473 230.806,243.083 231.372 C 243.693 231.937,244.396 232.400,244.646 232.400 C 246.158 232.400,249.955 234.678,252.024 236.825 C 253.283 238.131,254.467 239.206,254.656 239.213 C 255.156 239.231,256.124 240.737,256.961 242.800 C 258.364 246.257,259.002 247.591,259.254 247.595 C 263.261 247.668,263.144 270.278,259.115 274.460 C 258.738 274.851,257.900 276.302,257.254 277.685 C 256.607 279.068,255.565 280.760,254.939 281.445 C 254.313 282.129,253.284 283.261,252.652 283.959 C 252.021 284.658,250.916 285.475,250.197 285.776 C 249.477 286.076,248.193 286.925,247.344 287.661 C 245.567 289.202,243.976 290.000,240.600 291.045 C 239.280 291.453,237.739 292.114,237.175 292.514 C 235.286 293.851,231.337 293.984,193.084 293.992 C 150.838 294.001,153.832 294.192,151.092 291.307 C 149.224 289.339,149.200 288.928,149.206 259.203 C 149.213 229.431,149.159 230.315,151.008 229.570 C 153.588 228.531,156.358 228.468,196.600 228.533 L 238.200 228.600 240.087 229.472 " stroke="none" fill="#84642c" fill-rule="evenodd"></path><path id="path3" d="M0.000 204.600 L 0.000 409.200 200.000 409.200 L 400.000 409.200 400.000 204.600 L 400.000 0.000 200.000 0.000 L 0.000 0.000 0.000 204.600 M248.800 56.107 C 253.034 56.878,253.514 57.056,255.000 58.407 C 256.307 59.596,256.951 59.801,261.929 60.608 C 265.299 61.155,268.000 62.560,268.000 63.766 C 268.000 64.086,269.106 64.561,270.824 64.978 C 273.725 65.683,275.993 66.726,275.997 67.357 C 276.002 68.042,278.400 70.000,279.235 70.000 C 280.534 70.000,282.294 71.468,282.788 72.964 C 283.184 74.163,283.436 74.345,285.044 74.586 C 286.638 74.825,286.980 75.066,287.910 76.605 C 288.561 77.683,289.512 78.600,290.390 78.995 C 291.240 79.379,292.133 80.224,292.607 81.093 C 293.043 81.894,294.210 83.115,295.200 83.807 C 296.634 84.808,297.071 85.398,297.350 86.701 C 297.628 88.001,297.917 88.392,298.750 88.596 C 300.130 88.935,301.597 90.660,301.613 91.962 C 301.626 93.034,302.418 94.390,303.044 94.413 C 304.292 94.460,306.058 97.296,306.834 100.496 C 307.182 101.934,307.599 102.582,308.560 103.175 C 310.084 104.117,311.205 106.894,311.202 109.720 C 311.200 112.009,311.975 113.678,313.326 114.293 C 314.878 115.000,315.498 117.482,316.001 124.992 C 316.506 132.516,316.717 134.000,317.286 134.000 C 318.819 134.000,319.173 135.663,319.187 142.931 L 319.200 150.062 317.983 151.279 C 316.612 152.650,316.288 154.444,315.798 163.400 C 315.507 168.716,314.999 170.301,312.970 172.217 C 311.845 173.279,311.644 173.787,311.390 176.217 C 310.985 180.087,310.170 181.970,308.621 182.617 C 307.570 183.056,307.279 183.487,306.830 185.271 C 306.033 188.431,305.003 190.201,303.417 191.137 C 301.764 192.112,301.523 193.433,302.900 193.971 C 304.213 194.485,305.526 195.848,306.154 197.351 C 306.457 198.076,307.536 199.488,308.552 200.490 C 310.319 202.232,311.973 205.089,311.991 206.432 C 311.996 206.780,312.495 207.320,313.100 207.632 C 314.582 208.397,315.571 209.611,315.587 210.686 C 315.606 211.959,316.853 214.481,317.871 215.307 C 319.430 216.570,320.272 218.526,321.030 222.641 C 321.692 226.236,321.886 226.732,322.787 227.134 C 324.349 227.830,325.074 230.319,325.604 236.800 C 326.059 242.363,326.124 242.641,327.191 243.600 C 329.464 245.644,330.761 267.088,328.945 272.600 C 328.105 275.149,327.123 277.288,326.559 277.800 C 326.316 278.020,325.888 280.990,325.609 284.400 C 325.012 291.683,323.898 295.200,322.190 295.200 C 321.682 295.200,321.014 297.340,320.567 300.400 C 320.215 302.813,318.990 305.131,317.774 305.685 C 317.228 305.933,316.676 306.601,316.547 307.169 C 315.546 311.582,313.853 314.800,312.532 314.800 C 312.314 314.800,311.909 315.295,311.632 315.900 C 309.866 319.758,309.874 319.749,307.600 320.805 C 307.270 320.958,306.835 321.850,306.634 322.787 C 306.350 324.106,305.905 324.753,304.666 325.651 C 303.785 326.289,302.721 327.376,302.301 328.067 C 301.471 329.432,300.043 330.766,299.389 330.787 C 298.835 330.805,297.744 332.117,297.411 333.164 C 297.144 334.007,294.559 335.600,293.459 335.600 C 293.144 335.600,292.763 336.095,292.611 336.700 C 292.288 337.990,291.109 339.200,290.177 339.200 C 289.012 339.200,286.800 340.472,286.793 341.146 C 286.784 342.012,285.082 343.597,284.144 343.613 C 283.735 343.620,283.051 343.890,282.624 344.213 C 282.196 344.536,281.467 344.800,281.002 344.800 C 280.498 344.800,279.556 345.504,278.671 346.543 C 277.417 348.014,276.765 348.398,274.493 349.007 C 272.553 349.527,271.457 350.088,270.574 351.014 C 269.151 352.507,266.249 353.476,261.665 353.990 C 259.201 354.267,258.479 354.509,257.867 355.266 C 256.632 356.792,255.101 357.594,253.400 357.605 C 252.520 357.611,250.360 357.876,248.600 358.194 C 245.881 358.685,233.449 358.774,165.922 358.786 L 86.445 358.800 85.322 357.835 L 84.200 356.869 84.200 207.735 C 84.200 125.711,84.333 58.125,84.497 57.544 C 85.192 55.066,79.915 55.207,166.600 55.354 C 235.585 55.472,245.824 55.565,248.800 56.107 M154.262 125.531 C 153.266 126.632,153.251 159.194,154.246 160.189 C 154.834 160.777,158.539 160.823,195.546 160.701 C 240.306 160.553,240.530 160.542,241.011 158.348 C 241.305 157.011,242.022 156.383,244.158 155.591 C 245.604 155.055,245.814 154.816,245.915 153.591 C 245.979 152.826,246.414 150.760,246.882 149.000 C 247.813 145.498,248.244 141.149,247.766 140.080 C 247.249 138.925,246.360 135.109,246.073 132.815 C 245.820 130.787,245.713 130.612,244.592 130.384 C 242.623 129.984,241.306 128.891,241.032 127.430 L 240.782 126.098 236.616 125.449 C 229.854 124.396,155.222 124.471,154.262 125.531 M153.867 230.667 C 153.327 231.207,153.559 287.792,154.105 288.537 C 154.578 289.185,157.262 289.221,197.405 289.114 C 241.613 288.996,242.400 288.968,242.400 287.471 C 242.400 286.211,247.262 283.615,249.662 283.596 C 249.958 283.593,250.560 282.652,251.000 281.504 C 251.440 280.356,252.166 279.233,252.614 279.008 C 254.028 278.300,255.090 277.042,255.324 275.800 C 255.962 272.415,256.722 270.710,258.320 269.082 L 260.000 267.370 260.000 260.475 C 260.000 253.603,259.997 253.579,259.058 253.222 C 257.723 252.715,256.577 250.553,255.806 247.085 C 255.210 244.406,254.991 243.998,253.696 243.148 C 252.901 242.627,251.955 241.660,251.595 241.000 C 251.235 240.340,250.175 239.284,249.240 238.653 C 248.304 238.022,247.437 237.212,247.311 236.853 C 246.918 235.723,245.453 234.818,244.000 234.809 C 241.823 234.794,238.934 233.502,237.446 231.878 L 236.092 230.400 195.113 230.400 C 172.574 230.400,154.013 230.520,153.867 230.667 " stroke="none" fill="#fcbc04" fill-rule="evenodd"></path><path id="path4" d="M86.297 55.854 C 85.292 56.278,84.695 56.838,84.497 57.544 C 84.333 58.125,84.200 125.711,84.200 207.735 L 84.200 356.869 85.322 357.835 L 86.445 358.800 165.922 358.786 C 233.449 358.774,245.881 358.685,248.600 358.194 C 250.360 357.876,252.520 357.611,253.400 357.605 C 255.101 357.594,256.632 356.792,257.867 355.266 C 258.479 354.509,259.201 354.267,261.665 353.990 C 266.249 353.476,269.151 352.507,270.574 351.014 C 271.457 350.088,272.553 349.527,274.493 349.007 C 276.765 348.398,277.417 348.014,278.671 346.543 C 279.556 345.504,280.498 344.800,281.002 344.800 C 281.467 344.800,282.196 344.536,282.624 344.213 C 283.051 343.890,283.735 343.620,284.144 343.613 C 285.082 343.597,286.784 342.012,286.793 341.146 C 286.800 340.472,289.012 339.200,290.177 339.200 C 291.109 339.200,292.288 337.990,292.611 336.700 C 292.763 336.095,293.144 335.600,293.459 335.600 C 294.559 335.600,297.144 334.007,297.411 333.164 C 297.744 332.117,298.835 330.805,299.389 330.787 C 300.043 330.766,301.471 329.432,302.301 328.067 C 302.721 327.376,303.785 326.289,304.666 325.651 C 305.905 324.753,306.350 324.106,306.634 322.787 C 306.835 321.850,307.270 320.958,307.600 320.805 C 309.874 319.749,309.866 319.758,311.632 315.900 C 311.909 315.295,312.314 314.800,312.532 314.800 C 313.853 314.800,315.546 311.582,316.547 307.169 C 316.676 306.601,317.228 305.933,317.774 305.685 C 318.990 305.131,320.215 302.813,320.567 300.400 C 321.014 297.340,321.682 295.200,322.190 295.200 C 323.898 295.200,325.012 291.683,325.609 284.400 C 325.888 280.990,326.316 278.020,326.559 277.800 C 327.123 277.288,328.105 275.149,328.945 272.600 C 330.761 267.088,329.464 245.644,327.191 243.600 C 326.124 242.641,326.059 242.363,325.604 236.800 C 325.074 230.319,324.349 227.830,322.787 227.134 C 321.886 226.732,321.692 226.236,321.030 222.641 C 320.272 218.526,319.430 216.570,317.871 215.307 C 316.853 214.481,315.606 211.959,315.587 210.686 C 315.571 209.611,314.582 208.397,313.100 207.632 C 312.495 207.320,311.996 206.780,311.991 206.432 C 311.973 205.089,310.319 202.232,308.552 200.490 C 307.536 199.488,306.457 198.076,306.154 197.351 C 305.526 195.848,304.213 194.485,302.900 193.971 C 301.523 193.433,301.764 192.112,303.417 191.137 C 305.003 190.201,306.033 188.431,306.830 185.271 C 307.279 183.487,307.570 183.056,308.621 182.617 C 310.170 181.970,310.985 180.087,311.390 176.217 C 311.644 173.787,311.845 173.279,312.970 172.217 C 314.999 170.301,315.507 168.716,315.798 163.400 C 316.288 154.444,316.612 152.650,317.983 151.279 L 319.200 150.062 319.187 142.931 C 319.173 135.663,318.819 134.000,317.286 134.000 C 316.717 134.000,316.506 132.516,316.001 124.992 C 315.498 117.482,314.878 115.000,313.326 114.293 C 311.975 113.678,311.200 112.009,311.202 109.720 C 311.205 106.894,310.084 104.117,308.560 103.175 C 307.599 102.582,307.182 101.934,306.834 100.496 C 306.058 97.296,304.292 94.460,303.044 94.413 C 302.418 94.390,301.626 93.034,301.613 91.962 C 301.597 90.660,300.130 88.935,298.750 88.596 C 297.917 88.392,297.628 88.001,297.350 86.701 C 297.071 85.398,296.634 84.808,295.200 83.807 C 294.210 83.115,293.043 81.894,292.607 81.093 C 292.133 80.224,291.240 79.379,290.390 78.995 C 289.512 78.600,288.561 77.683,287.910 76.605 C 286.980 75.066,286.638 74.825,285.044 74.586 C 283.436 74.345,283.184 74.163,282.788 72.964 C 282.294 71.468,280.534 70.000,279.235 70.000 C 278.400 70.000,276.002 68.042,275.997 67.357 C 275.993 66.726,273.725 65.683,270.824 64.978 C 269.106 64.561,268.000 64.086,268.000 63.766 C 268.000 62.560,265.299 61.155,261.929 60.608 C 256.951 59.801,256.307 59.596,255.000 58.407 C 251.670 55.378,255.346 55.505,166.600 55.354 C 95.391 55.233,87.655 55.282,86.297 55.854 M242.400 56.850 C 246.670 57.242,247.821 57.505,250.281 58.651 C 251.866 59.389,253.936 60.161,254.881 60.367 C 261.605 61.831,262.722 62.195,264.800 63.594 C 266.010 64.409,268.063 65.407,269.361 65.812 C 270.765 66.250,272.437 67.166,273.485 68.074 C 274.454 68.913,276.186 70.043,277.334 70.586 C 279.403 71.565,280.638 72.505,281.666 73.884 C 281.960 74.278,283.100 75.057,284.200 75.615 C 285.505 76.278,286.462 77.116,286.955 78.026 C 287.427 78.898,288.278 79.663,289.224 80.067 C 290.233 80.499,290.993 81.213,291.507 82.216 C 291.931 83.042,292.974 84.191,293.825 84.769 C 294.675 85.346,295.737 86.515,296.185 87.365 C 296.633 88.216,297.595 89.365,298.322 89.920 C 299.101 90.515,300.138 91.985,300.847 93.500 C 301.508 94.914,302.725 96.820,303.551 97.735 C 304.377 98.651,305.436 100.425,305.904 101.677 C 306.372 102.930,307.398 104.888,308.183 106.030 C 308.969 107.172,309.718 108.578,309.848 109.153 C 310.409 111.640,311.663 115.410,312.375 116.750 C 317.299 126.023,317.478 158.769,312.659 168.899 C 311.295 171.768,310.000 175.669,310.000 176.912 C 310.000 177.671,308.453 180.400,308.023 180.400 C 307.700 180.400,306.883 181.982,305.751 184.800 C 305.353 185.790,304.368 187.275,303.562 188.099 C 300.765 190.959,300.494 193.771,302.801 196.000 C 304.476 197.619,306.328 200.173,306.593 201.230 C 306.729 201.770,307.471 202.645,308.244 203.174 C 309.166 203.806,310.046 204.988,310.809 206.619 C 311.448 207.985,312.229 209.202,312.545 209.324 C 313.047 209.516,316.400 215.821,316.400 216.572 C 316.400 216.727,316.962 217.524,317.650 218.343 C 318.829 219.747,320.381 223.708,320.394 225.346 C 320.402 226.379,321.721 230.000,322.089 230.000 C 323.264 230.000,325.286 239.430,325.947 248.000 C 326.091 249.870,326.432 251.793,326.705 252.274 C 327.453 253.594,327.399 269.713,326.642 270.914 C 326.335 271.401,325.874 273.690,325.618 276.000 C 324.690 284.356,323.006 291.600,321.990 291.600 C 321.845 291.600,321.407 292.725,321.016 294.100 C 319.447 299.615,318.758 301.455,317.899 302.417 C 316.715 303.741,315.600 305.760,315.600 306.578 C 315.600 307.597,314.023 310.438,312.751 311.710 C 312.118 312.344,311.490 313.298,311.357 313.831 C 311.223 314.364,310.997 314.800,310.856 314.800 C 310.714 314.800,310.182 315.586,309.672 316.547 C 309.162 317.508,308.327 318.518,307.815 318.792 C 307.304 319.065,306.386 320.277,305.775 321.484 C 305.080 322.858,304.106 324.048,303.169 324.668 C 302.345 325.213,301.562 326.095,301.428 326.629 C 301.294 327.163,301.008 327.600,300.792 327.600 C 300.577 327.600,300.400 327.805,300.400 328.056 C 300.400 328.659,299.171 329.571,298.338 329.587 C 297.974 329.594,297.222 330.375,296.667 331.321 C 296.070 332.340,295.045 333.360,294.155 333.821 C 292.707 334.571,291.200 335.784,291.200 336.200 C 291.200 336.690,289.527 338.003,288.610 338.233 C 288.055 338.373,287.600 338.647,287.600 338.843 C 287.600 339.040,287.364 339.200,287.076 339.200 C 286.788 339.200,286.023 339.699,285.376 340.309 C 283.861 341.738,281.346 343.600,280.931 343.600 C 280.171 343.600,277.203 345.035,277.201 345.404 C 277.200 345.792,276.290 346.495,274.600 347.411 C 274.160 347.650,272.540 348.283,271.000 348.819 C 269.460 349.355,267.480 350.258,266.600 350.825 C 264.904 351.918,263.620 352.346,258.800 353.426 C 254.688 354.348,251.592 355.189,250.400 355.708 C 245.374 357.895,251.510 357.736,165.863 357.892 L 87.526 358.034 86.163 356.588 L 84.800 355.143 84.800 207.345 C 84.800 99.278,84.920 59.313,85.247 58.674 C 86.499 56.224,79.878 56.419,162.400 56.404 C 215.778 56.395,238.841 56.523,242.400 56.850 M153.051 124.213 L 151.200 126.037 151.200 142.871 L 151.200 159.705 152.957 161.462 L 154.714 163.219 193.657 163.098 L 232.600 162.978 236.800 161.673 C 240.364 160.565,241.225 160.128,242.484 158.784 C 243.300 157.913,244.142 157.200,244.355 157.200 C 245.005 157.200,247.200 154.270,247.200 153.401 C 247.200 152.952,247.920 151.152,248.800 149.400 C 250.716 145.586,251.084 140.185,249.590 137.800 C 248.457 135.993,247.200 133.181,247.197 132.449 C 247.193 131.444,245.829 129.611,244.471 128.785 C 243.796 128.374,242.937 127.570,242.562 126.999 C 241.767 125.785,240.037 124.800,238.700 124.800 C 238.183 124.800,237.539 124.579,237.270 124.310 C 235.712 122.752,233.577 122.664,193.551 122.524 L 154.901 122.388 153.051 124.213 M236.616 125.449 L 240.782 126.098 241.032 127.430 C 241.306 128.891,242.623 129.984,244.592 130.384 C 245.713 130.612,245.820 130.787,246.073 132.815 C 246.360 135.109,247.249 138.925,247.766 140.080 C 248.244 141.149,247.813 145.498,246.882 149.000 C 246.414 150.760,245.979 152.826,245.915 153.591 C 245.814 154.816,245.604 155.055,244.158 155.591 C 242.022 156.383,241.305 157.011,241.011 158.348 C 240.530 160.542,240.306 160.553,195.546 160.701 C 158.539 160.823,154.834 160.777,154.246 160.189 C 153.251 159.194,153.266 126.632,154.262 125.531 C 155.222 124.471,229.854 124.396,236.616 125.449 M152.800 230.117 L 151.400 230.600 151.290 258.800 C 151.167 290.279,151.044 288.111,153.064 290.130 L 154.552 291.618 195.256 291.509 C 227.168 291.424,236.068 291.292,236.460 290.900 C 236.735 290.625,237.261 290.400,237.628 290.400 C 239.723 290.400,245.352 288.010,245.968 286.859 C 246.184 286.457,247.435 285.645,248.748 285.055 C 250.573 284.237,251.475 283.513,252.568 281.992 C 253.355 280.896,254.175 280.000,254.391 280.000 C 254.864 280.000,256.400 277.092,256.400 276.197 C 256.400 275.847,257.075 274.551,257.900 273.316 C 260.891 268.838,261.203 267.581,261.194 260.045 C 261.187 254.297,260.436 251.066,258.739 249.494 C 258.174 248.970,257.389 247.564,256.996 246.371 C 255.086 240.573,248.900 234.621,243.563 233.445 C 242.992 233.319,242.092 232.788,241.563 232.264 C 238.893 229.622,242.234 229.809,196.000 229.717 C 164.203 229.654,153.865 229.750,152.800 230.117 M237.446 231.878 C 238.934 233.502,241.823 234.794,244.000 234.809 C 245.453 234.818,246.918 235.723,247.311 236.853 C 247.437 237.212,248.304 238.022,249.240 238.653 C 250.175 239.284,251.235 240.340,251.595 241.000 C 251.955 241.660,252.901 242.627,253.696 243.148 C 254.991 243.998,255.210 244.406,255.806 247.085 C 256.577 250.553,257.723 252.715,259.058 253.222 C 259.997 253.579,260.000 253.603,260.000 260.475 L 260.000 267.370 258.320 269.082 C 256.722 270.710,255.962 272.415,255.324 275.800 C 255.090 277.042,254.028 278.300,252.614 279.008 C 252.166 279.233,251.440 280.356,251.000 281.504 C 250.560 282.652,249.958 283.593,249.662 283.596 C 247.262 283.615,242.400 286.211,242.400 287.471 C 242.400 288.968,241.613 288.996,197.405 289.114 C 157.262 289.221,154.578 289.185,154.105 288.537 C 153.559 287.792,153.327 231.207,153.867 230.667 C 154.013 230.520,172.574 230.400,195.113 230.400 L 236.092 230.400 237.446 231.878 " stroke="none" fill="#d4a414" fill-rule="evenodd"></path></g></svg>